<svg width="158" height="109" viewBox="0 0 158 109" fill="none" xmlns="http://www.w3.org/2000/svg">
<path d="M68.8568 38.108L86.7096 38.2902L78.0634 48.9052L68.8568 38.108ZM67.9504 37.6882L78.0689 49.5735L87.572 37.887L67.9504 37.6661V37.6882Z" fill="#1D1D1B"/>
<path d="M68.0933 37.6661L72.356 33.2368H83.3588L87.4292 37.9202" stroke="#1D1D1B" stroke-width="0.75" stroke-miterlimit="10" stroke-linecap="round"/>
<path d="M75.5696 33.2312L80.1564 37.7821" stroke="#1D1D1B" stroke-width="0.75" stroke-miterlimit="10"/>
<path d="M80.1564 33.2312L75.5696 37.7821" stroke="#1D1D1B" stroke-width="0.75" stroke-miterlimit="10"/>
<path d="M71.6913 33.9271L73.2788 35.5011L75.531 37.7379L75.5695 37.7766L78.0743 49.5514L70.9827 37.7766L71.0651 37.6937L73.2788 35.5011L75.5585 33.2367L75.5695 33.2257" stroke="#1D1D1B" stroke-width="0.75" stroke-linejoin="round"/>
<path d="M80.1453 33.2312L84.8694 37.9147" stroke="#1D1D1B" stroke-width="0.75" stroke-miterlimit="10"/>
<path d="M84.7102 37.9146L78.0745 49.5514L80.1399 37.7876L80.1454 37.7766L80.1509 37.771L82.436 35.5011L83.9906 33.9602" stroke="#1D1D1B" stroke-width="0.75" stroke-linejoin="round"/>
<path d="M64.6106 27.3825L68.9007 33.6178" stroke="#1D1D1B" stroke-width="0.75" stroke-miterlimit="10"/>
<path d="M68.7744 25.339L71.9165 32.2371" stroke="#1D1D1B" stroke-width="0.75" stroke-miterlimit="10"/>
<path d="M74.6907 31.74L72.8999 24.2289" stroke="#1D1D1B" stroke-width="0.75" stroke-miterlimit="10"/>
<path d="M77.7612 31.7401V23.7926" stroke="#1D1D1B" stroke-width="0.75" stroke-miterlimit="10"/>
<path d="M82.6228 24.2289L80.887 31.74" stroke="#1D1D1B" stroke-width="0.75" stroke-miterlimit="10"/>
<path d="M83.8423 32.2371L86.7701 25.3721" stroke="#1D1D1B" stroke-width="0.75" stroke-miterlimit="10"/>
<path d="M90.7635 27.399L87.0447 33.6068" stroke="#1D1D1B" stroke-width="0.75" stroke-miterlimit="10"/>
<path d="M94.6803 29.8733L89.4453 35.8325" stroke="#1D1D1B" stroke-width="0.75" stroke-miterlimit="10"/>
<path d="M61.0181 29.8734L66.5552 35.8326" stroke="#1D1D1B" stroke-width="0.75" stroke-miterlimit="10"/>
<path d="M79.7058 70.3507L90.3186 39.0137H109.254L108.029 42.6146H93.7738L90.6043 51.9152L102.14 51.8821L101.102 54.9252H89.566L84.3091 70.3562L79.7058 70.3507Z" fill="#1D1D1B" stroke="#1D1D1B" stroke-miterlimit="10"/>
<path d="M71.812 70.3507L66.5496 54.9198H55.0139L53.9757 51.8766L65.5114 51.9098L62.3418 42.6147H48.1035L46.873 39.0138H65.8135L76.4263 70.3507H71.812Z" fill="#1D1D1B" stroke="#1D1D1B" stroke-miterlimit="10"/>
<path d="M51.6358 18.0268C50.2333 17.1848 49.092 15.9665 48.3399 14.5087C47.5573 13.0163 47.1553 11.3521 47.1698 9.66508C47.1103 7.80055 47.637 5.96459 48.675 4.41833C49.6735 2.97462 51.0421 1.82956 52.6355 1.10459C54.1852 0.382797 55.8716 0.0060136 57.5794 6.88364e-06C59.3186 -0.0348849 61.0323 0.424566 62.5232 1.3255C63.9172 2.17318 65.0563 3.38526 65.8191 4.83255C66.5718 6.25572 66.9642 7.84337 66.9617 9.45521C66.9703 11.2148 66.4765 12.9399 65.539 14.4258C64.5953 15.9283 63.2823 17.1609 61.7267 18.0047C60.1369 18.8838 58.3501 19.3401 56.5357 19.3302C54.8141 19.3582 53.1183 18.9071 51.6358 18.0268ZM61.0895 17.6733C62.1689 16.9716 63.025 15.9728 63.556 14.7959C64.1886 13.3767 64.4965 11.8328 64.4568 10.2781C64.4914 8.56805 64.152 6.87121 63.4626 5.30751C62.8608 3.92594 61.8794 2.74569 60.6336 1.90541C59.359 1.08928 57.8705 0.675702 56.3599 0.717984C55.4318 0.670837 54.5052 0.835101 53.6491 1.19851C52.793 1.56192 52.0297 2.11508 51.416 2.81669C50.2295 4.2195 49.6363 6.15436 49.6363 8.62126C49.6122 10.3731 49.9566 12.1103 50.647 13.7189C51.246 15.1589 52.2194 16.4103 53.465 17.3419C54.6588 18.2217 56.1049 18.687 57.5849 18.6674C58.8238 18.6811 60.0404 18.336 61.0895 17.6733Z" fill="#1D1D1B"/>
<path d="M88.8684 18.7778C88.8684 18.8993 88.841 18.9545 88.7805 18.9545H84.7156C84.2432 18.9545 83.3478 18.1482 82.0349 16.5245C80.7221 14.9007 79.1126 12.6584 77.2119 9.74233C76.7231 9.83741 76.2266 9.88733 75.7288 9.89145C75.6299 9.89145 75.1795 9.85832 74.3335 9.80309V16.5686C74.3087 17.0235 74.3702 17.479 74.5148 17.9107C74.5792 18.0487 74.6741 18.1701 74.7921 18.2658C74.9101 18.3614 75.0482 18.4289 75.1959 18.463C75.7219 18.5825 76.2611 18.6327 76.7999 18.6121C76.8549 18.6121 76.8878 18.6673 76.8878 18.7888C76.8878 18.9104 76.8549 18.9656 76.7999 18.9656C76.1627 18.9656 75.7013 18.9656 75.3442 18.938H73.2404H71.1914C70.8179 18.938 70.3125 18.9656 69.6808 18.9656C69.6368 18.9656 69.6204 18.9104 69.6204 18.7888C69.6204 18.6673 69.6204 18.6121 69.6808 18.6121C70.2178 18.6324 70.7552 18.5823 71.2793 18.463C71.4293 18.4231 71.5684 18.3498 71.6863 18.2484C71.8042 18.1471 71.8979 18.0203 71.9605 17.8776C72.11 17.4526 72.1753 17.0023 72.1527 16.5521V2.76139C72.1742 2.31613 72.1146 1.87067 71.9769 1.44693C71.9093 1.31123 71.8135 1.19169 71.696 1.09641C71.5785 1.00113 71.442 0.932327 71.2958 0.894644C70.781 0.763073 70.25 0.707263 69.7192 0.728957C69.6643 0.728957 69.6314 0.668205 69.6314 0.552224C69.6314 0.436244 69.6643 0.369969 69.7192 0.369969L71.1749 0.403106C72.0044 0.441766 72.6856 0.463858 73.2239 0.463858C73.6377 0.463858 74.0332 0.452812 74.4104 0.430721C74.7839 0.430721 75.108 0.39206 75.3882 0.369969C76.1188 0.31474 76.7999 0.281602 77.4317 0.281602C78.7481 0.201855 80.0522 0.575913 81.1286 1.342C81.5563 1.67881 81.8987 2.11257 82.1278 2.60787C82.357 3.10316 82.4663 3.64592 82.4469 4.19182C82.453 5.24081 82.1258 6.26436 81.5131 7.11343C80.8764 8.00072 80.0232 8.70826 79.0357 9.16795C80.6946 11.5759 82.0844 13.4556 83.205 14.8068C84.0853 15.9028 85.1068 16.876 86.2427 17.7008C86.9851 18.261 87.8804 18.579 88.808 18.6121C88.841 18.6121 88.8684 18.6673 88.8684 18.7778ZM76.0858 9.18452C77.569 9.18452 78.6237 8.85315 79.2609 8.18488C79.8981 7.5166 80.2002 6.48382 80.2002 5.06996C80.2002 3.50145 79.8706 2.38031 79.2169 1.71756C78.8411 1.36795 78.3984 1.099 77.9158 0.927131C77.4332 0.755261 76.9208 0.684073 76.4099 0.717912C75.8374 0.659913 75.2635 0.813005 74.7949 1.1487C74.6136 1.38088 74.4795 1.6467 74.4003 1.93099C74.3211 2.21528 74.2984 2.51246 74.3335 2.80557V9.09615C74.9156 9.15743 75.5006 9.18692 76.0858 9.18452Z" fill="#1D1D1B"/>
<path d="M93.0653 18.0267C91.6629 17.1847 90.5215 15.9664 89.7694 14.5086C88.9825 13.0177 88.5784 11.3528 88.5939 9.665C88.5395 7.7987 89.072 5.96271 90.1155 4.41824C91.1126 2.97322 92.4816 1.82782 94.0761 1.1045C95.6255 0.382215 97.312 0.00540766 99.0199 -7.70397e-05C100.759 -0.0349688 102.473 0.424482 103.964 1.32542C105.358 2.1731 106.497 3.38517 107.26 4.83246C108.012 6.25564 108.405 7.84329 108.402 9.45513C108.411 11.2156 107.915 12.9414 106.974 14.4257C106.032 15.928 104.721 17.1607 103.167 18.0046C101.577 18.8837 99.7906 19.34 97.9762 19.3301C96.2509 19.3601 94.5511 18.909 93.0653 18.0267ZM102.53 17.6732C103.608 16.9712 104.462 15.9723 104.991 14.7958C105.628 13.3778 105.938 11.8334 105.897 10.278C105.932 8.56797 105.592 6.87113 104.903 5.30743C104.299 3.92547 103.316 2.74528 102.069 1.90532C100.79 1.08441 99.2948 0.670563 97.7785 0.7179C96.8504 0.670753 95.9237 0.835017 95.0676 1.19843C94.2116 1.56183 93.4482 2.115 92.8346 2.8166C91.6481 4.21942 91.0548 6.15428 91.0548 8.62117C91.0307 10.373 91.3751 12.1102 92.0656 13.7188C92.6646 15.1588 93.6379 16.4102 94.8835 17.3418C96.0769 18.2224 97.5233 18.6877 99.0034 18.6673C100.25 18.6853 101.475 18.34 102.53 17.6732Z" fill="#1D1D1B"/>
<path d="M13.3813 86.0689C14.2552 86.5831 14.9643 87.3383 15.4248 88.2449C15.96 89.3435 16.2202 90.5569 16.1828 91.7796C16.2286 93.291 15.8579 94.7857 15.1116 96.0985C14.4449 97.2469 13.4678 98.1815 12.2937 98.7937C11.1554 99.3893 9.89095 99.7 8.60774 99.6994C6.89404 99.7203 5.2209 99.1751 3.84516 98.1475L1.09857 99.3957H1.06012C1.02174 99.4007 0.982892 99.391 0.951328 99.3684C0.919765 99.3459 0.897807 99.3123 0.889834 99.2742C0.879671 99.234 0.880426 99.1917 0.89202 99.1519C0.903614 99.1121 0.925623 99.0761 0.955752 99.0477C1.54325 98.6865 2.05009 98.207 2.4444 97.6394C2.77826 97.0287 2.93436 96.3358 2.89484 95.6401V78.486C2.92651 77.8808 2.85023 77.2747 2.66962 76.6965C2.60704 76.5249 2.49075 76.3782 2.33821 76.2786C2.18568 76.179 2.00513 76.1319 1.82367 76.1443C1.27707 76.1793 0.744653 76.3338 0.263613 76.5971H0.230654C0.13727 76.5971 0.0713524 76.5309 0.0219139 76.4038C-0.0275246 76.2768 0.0219139 76.205 0.0933251 76.1774L4.55378 74.0235L4.72956 73.9848C4.81422 73.9934 4.89355 74.0303 4.95478 74.0897C4.9892 74.1135 5.01791 74.1446 5.03882 74.1809C5.05973 74.2172 5.0723 74.2578 5.07563 74.2996V88.2173C5.84031 87.4262 6.70024 86.7342 7.63545 86.1573C8.52343 85.6196 9.54327 85.3422 10.5798 85.3565C11.5597 85.3423 12.526 85.588 13.3813 86.0689ZM12.6342 97.4516C13.3667 96.4096 13.7329 94.924 13.7329 92.9946C13.7329 90.9291 13.3319 89.355 12.5354 88.2615C12.1917 87.7452 11.7254 87.3233 11.1787 87.034C10.632 86.7447 10.022 86.5971 9.40425 86.6046C8.01997 86.6046 6.59174 87.3502 5.11408 88.8138V94.4416C5.07333 95.298 5.29133 96.1467 5.73939 96.8762C6.18746 97.6057 6.84462 98.1817 7.62446 98.5286C8.25768 98.8271 8.94668 98.9871 9.64594 98.998C10.2339 99.0183 10.8173 98.8869 11.3404 98.6162C11.8635 98.3455 12.309 97.9445 12.6342 97.4516Z" fill="#1D1D1B"/>
<path d="M32.5196 86.0026C32.5196 86.1407 32.4811 86.2125 32.4152 86.2125C32.1215 86.2066 31.8298 86.262 31.5585 86.3751C31.2871 86.4882 31.042 86.6566 30.8387 86.8697C30.2949 87.5215 29.8792 88.2711 29.6137 89.0789L25.4609 100.213C24.8085 102.034 24.0094 103.798 23.0713 105.487C22.4987 106.546 21.7085 107.471 20.7532 108.199C19.9444 108.752 18.9844 109.038 18.0066 109.017C17.5361 109.042 17.0701 108.914 16.6773 108.652C16.5114 108.532 16.3782 108.372 16.2899 108.187C16.2016 108.001 16.161 107.797 16.1719 107.592C16.162 107.431 16.1896 107.271 16.2525 107.123C16.3155 106.975 16.4121 106.845 16.5345 106.741C16.7741 106.543 17.0759 106.438 17.3859 106.443C17.6386 106.434 17.8905 106.476 18.1275 106.564C18.3393 106.654 18.5417 106.765 18.7317 106.896L19.1327 107.106C19.3859 107.228 19.6649 107.287 19.9457 107.277C20.239 107.268 20.5277 107.201 20.7947 107.079C21.0617 106.956 21.3016 106.782 21.5003 106.564C22.1452 105.859 22.6754 105.056 23.0713 104.184C23.628 103.079 24.2853 101.531 25.0434 99.5393L19.715 88.6812C19.3792 87.9836 18.9724 87.3228 18.501 86.7096C18.3685 86.556 18.2036 86.4342 18.0183 86.353C17.8329 86.2717 17.6319 86.2332 17.4298 86.2401C17.3859 86.2401 17.3584 86.1683 17.3584 86.0303C17.3584 85.8922 17.3584 85.8204 17.4298 85.8204C17.9792 85.8204 18.3637 85.8204 18.6438 85.8535L19.8523 85.8922L22.1045 85.8535C22.4506 85.8535 22.912 85.8204 23.4833 85.8204C23.5328 85.8204 23.5547 85.8922 23.5547 86.0303C23.5547 86.1683 23.5547 86.2401 23.4833 86.2401C22.9885 86.2203 22.4937 86.278 22.0166 86.4113C21.6816 86.5273 21.5113 86.7261 21.5113 87.0023C21.5367 87.2077 21.5961 87.4075 21.687 87.5932L26.153 96.8496L28.8172 89.1617C28.9761 88.7253 29.0687 88.2673 29.0918 87.8031C29.1101 87.5668 29.0634 87.3301 28.9568 87.1187C28.8502 86.9073 28.6879 86.7295 28.4876 86.6046C27.877 86.3186 27.2041 86.1931 26.532 86.2401C26.4826 86.2401 26.4606 86.1683 26.4606 86.0303C26.4606 85.8922 26.4606 85.8204 26.532 85.8204C27.1546 85.8204 27.627 85.8314 27.9493 85.8535L30.0257 85.8922L31.2726 85.8535C31.5253 85.8535 31.9043 85.8204 32.4152 85.8204C32.4811 85.7928 32.5196 85.8646 32.5196 86.0026Z" fill="#1D1D1B"/>
<path d="M56.4641 82.1421C56.4641 82.2084 56.4037 82.2415 56.2774 82.2415C56.151 82.2415 56.0851 82.2084 56.0851 82.1421C56.0219 81.0549 55.5669 80.028 54.8052 79.2536C54.0394 78.5603 53.0332 78.1973 52.0037 78.243H50.0975C49.0593 78.243 48.3562 78.3866 47.9882 78.6793C47.7782 78.8959 47.6198 79.1575 47.5246 79.4444C47.4295 79.7313 47.4002 80.0362 47.4388 80.3361V87.9577H50.7567C51.6969 88.0343 52.6379 87.8205 53.4539 87.3447C53.7377 87.123 53.9622 86.8338 54.107 86.503C54.2518 86.1723 54.3124 85.8105 54.2833 85.4503C54.2833 85.4062 54.3547 85.3785 54.4921 85.3785C54.6294 85.3785 54.7008 85.3785 54.7008 85.4503L54.6679 88.3388C54.6679 89.0126 54.6679 89.5207 54.7008 89.8687L54.7338 91.6084C54.7338 91.6581 54.6679 91.6802 54.5305 91.6802C54.3932 91.6802 54.3218 91.6802 54.3218 91.6084C54.3597 91.1975 54.3009 90.7834 54.1501 90.3996C53.9994 90.0158 53.7608 89.6731 53.4539 89.3992C52.8789 88.9463 51.9451 88.7199 50.6524 88.7199H47.4334V96.2642C47.3953 96.8201 47.4974 97.3767 47.73 97.8824C47.864 98.075 48.0361 98.2377 48.2355 98.3603C48.435 98.4829 48.6575 98.5628 48.889 98.5949C49.7739 98.7648 50.6748 98.8352 51.5752 98.8047C51.6192 98.8047 51.6411 98.8765 51.6411 99.0146C51.6411 99.1527 51.6411 99.2245 51.5752 99.2245C50.6249 99.2245 49.8888 99.2245 49.3779 99.1913L46.1425 99.1527L43.7859 99.1913C43.3464 99.2134 42.7477 99.2245 41.9896 99.2245C41.9182 99.2245 41.8853 99.1527 41.8853 99.0146C41.8853 98.8765 41.9182 98.8047 41.9896 98.8047C42.6223 98.8278 43.2554 98.7703 43.8738 98.6335C44.0545 98.5915 44.2232 98.5084 44.367 98.3907C44.5107 98.2729 44.6258 98.1236 44.7032 97.9542C44.8783 97.4585 44.9549 96.9331 44.9285 96.4078V80.2975C44.9543 79.7771 44.8835 79.2564 44.7197 78.7621C44.6453 78.5972 44.5351 78.4511 44.3973 78.3346C44.2595 78.218 44.0975 78.1339 43.9232 78.0883C43.313 77.9346 42.6841 77.8695 42.0555 77.895C42.0116 77.895 41.9896 77.8232 41.9896 77.6851C41.9896 77.5471 41.9896 77.4753 42.0555 77.4753H56.0851C56.1277 77.4687 56.1713 77.4723 56.2122 77.4858C56.2532 77.4993 56.2904 77.5223 56.3209 77.553C56.3514 77.5836 56.3743 77.6211 56.3877 77.6622C56.4011 77.7034 56.4047 77.7472 56.3982 77.7901L56.4641 82.1421Z" fill="#1D1D1B"/>
<path d="M59.3262 99.0146C59.3262 98.8765 59.3591 98.8047 59.4305 98.8047C60.282 98.8047 60.8478 98.6501 61.1279 98.3353C61.4081 98.0205 61.5399 97.3798 61.5399 96.4078V89.9349C61.5733 89.3321 61.4913 88.7283 61.2982 88.1566C61.2318 87.9841 61.1123 87.8374 60.9572 87.7381C60.802 87.6387 60.6193 87.5918 60.4358 87.6043C59.8981 87.6462 59.3774 87.8126 58.9142 88.0903H58.8757C58.7823 88.0903 58.7164 88.0295 58.6725 87.9136C58.6285 87.7976 58.6725 87.7203 58.7384 87.6706L63.3417 85.5166L63.479 85.478C63.5637 85.4865 63.643 85.5235 63.7042 85.5829C63.7386 85.6066 63.7674 85.6378 63.7883 85.6741C63.8092 85.7104 63.8217 85.7509 63.8251 85.7928C63.8251 85.9585 63.8251 86.4169 63.7921 87.1845C63.7592 87.9522 63.7592 88.8414 63.7592 89.8963V96.4078C63.7401 96.917 63.7919 97.4263 63.913 97.9211C63.9546 98.0756 64.0306 98.2185 64.1353 98.339C64.24 98.4596 64.3706 98.5546 64.5172 98.617C64.9521 98.7635 65.4104 98.8272 65.8685 98.8047C65.9345 98.8047 65.9729 98.8765 65.9729 99.0146C65.9729 99.1527 65.9345 99.2245 65.8685 99.2245C65.2899 99.2245 64.8395 99.2134 64.5172 99.1913L62.6495 99.1527L60.7104 99.1913C60.3863 99.1913 59.9634 99.2245 59.4305 99.2245C59.3701 99.2245 59.3262 99.1527 59.3262 99.0146ZM61.2158 81.0983C61.0652 80.9417 60.9487 80.7552 60.874 80.5507C60.7993 80.3462 60.7679 80.1283 60.7819 79.9109C60.7727 79.7064 60.8066 79.5023 60.8814 79.312C60.9562 79.1216 61.0702 78.9493 61.2158 78.8063C61.3773 78.661 61.5657 78.5491 61.7702 78.4771C61.9748 78.405 62.1915 78.3743 62.4078 78.3866C62.6167 78.3747 62.8257 78.4059 63.0221 78.478C63.2186 78.5502 63.3984 78.6619 63.5504 78.8063C63.6897 78.9529 63.798 79.1264 63.8688 79.3162C63.9396 79.5061 63.9714 79.7083 63.9624 79.9109C63.976 80.1264 63.9466 80.3425 63.8758 80.5465C63.8051 80.7504 63.6944 80.938 63.5504 81.0983C63.3972 81.2406 63.2171 81.3507 63.0209 81.4218C62.8246 81.4929 62.6162 81.5238 62.4078 81.5125C61.9753 81.5359 61.551 81.3871 61.2268 81.0983H61.2158Z" fill="#1D1D1B"/>
<path d="M78.2337 98.4733C79.0175 98.5773 79.7553 98.9051 80.3596 99.4177C80.6956 99.7251 80.9567 100.106 81.1225 100.531C81.2882 100.957 81.3542 101.415 81.3154 101.87C81.3116 103.154 80.8847 104.401 80.1014 105.416C79.2625 106.534 78.1652 107.431 76.9043 108.028C75.5962 108.671 74.1584 109.004 72.7021 109C71.3618 109.066 70.0383 108.677 68.9447 107.895C68.5091 107.581 68.1546 107.166 67.9109 106.686C67.6673 106.205 67.5414 105.673 67.544 105.134C67.544 103.44 68.7214 101.77 71.0761 100.125C70.3762 100.035 69.7096 99.7714 69.137 99.3569C68.899 99.156 68.712 98.9008 68.5916 98.6127C68.4713 98.3245 68.421 98.0117 68.4449 97.7001C68.4408 97.0201 68.6525 96.3565 69.0491 95.8057C69.5869 95.1069 70.2235 94.491 70.9388 93.9776C70.1636 93.6126 69.5039 93.0392 69.0326 92.3208C68.5792 91.6412 68.3364 90.8416 68.335 90.0232C68.3241 89.3933 68.4648 88.7701 68.745 88.2066C69.0252 87.6431 69.4367 87.156 69.9445 86.7868C71.1086 85.9221 72.5301 85.4802 73.9765 85.5331C75.2615 85.4808 76.5272 85.8597 77.5745 86.6101C78.1586 86.2701 78.7728 85.9854 79.4092 85.7595C80.011 85.5565 80.6422 85.4557 81.2769 85.4613C81.3483 85.4613 81.3978 85.5497 81.4362 85.7264C81.4693 85.9086 81.4859 86.0935 81.4857 86.2787C81.4849 86.5709 81.4498 86.8619 81.3813 87.1458C81.3154 87.4496 81.233 87.5766 81.1396 87.5269C80.4041 87.1801 79.6009 87.0028 78.7885 87.0077C78.5445 87.0037 78.3005 87.0148 78.0579 87.0409C78.8018 87.8285 79.2116 88.8764 79.2005 89.9625C79.2051 90.7859 78.9514 91.5899 78.4754 92.26C77.9625 92.9724 77.2783 93.5424 76.4869 93.9169C75.595 94.3426 74.6176 94.5561 73.6304 94.541C72.8846 94.5384 72.1436 94.4211 71.4331 94.193C71.0776 94.4757 70.7729 94.8175 70.5323 95.2037C70.3446 95.5408 70.2498 95.9221 70.2576 96.3083C70.2418 96.5344 70.2771 96.7611 70.3608 96.9715C70.4445 97.1819 70.5745 97.3706 70.741 97.5233C71.1872 97.8461 71.7142 98.0374 72.2626 98.0756C73.2263 98.1977 74.1973 98.2512 75.1685 98.2358C76.1937 98.2609 77.2168 98.3402 78.2337 98.4733ZM77.959 106.686C78.4272 106.276 78.7977 105.765 79.043 105.191C79.2884 104.618 79.4022 103.996 79.3763 103.372C79.4071 103.003 79.3647 102.631 79.2515 102.278C79.1384 101.926 78.9567 101.599 78.7171 101.318C78.2393 100.858 77.6267 100.565 76.9703 100.484C75.9543 100.345 74.9303 100.275 73.9051 100.274C73.2359 100.285 72.5667 100.261 71.9001 100.202C71.2675 100.608 70.7206 101.135 70.2906 101.754C69.9009 102.384 69.7095 103.117 69.7413 103.858C69.7122 104.416 69.806 104.974 70.0158 105.491C70.2257 106.008 70.5464 106.473 70.9552 106.852C71.8835 107.608 73.0578 107.992 74.2511 107.928C75.5968 107.985 76.9164 107.543 77.959 106.686ZM71.3123 86.8531C70.8449 87.5288 70.6255 88.3468 70.6916 89.1672C70.6727 90.0795 70.8606 90.9841 71.2409 91.8127C71.5431 92.4859 72.0145 93.0683 72.6087 93.5027C73.1262 93.8643 73.7418 94.0571 74.372 94.055C74.7122 94.0671 75.0506 93.9995 75.3604 93.8577C75.6702 93.7158 75.943 93.5035 76.1573 93.2376C76.6622 92.5129 76.9011 91.6344 76.8329 90.7523C76.8919 89.5248 76.501 88.3183 75.7343 87.3612C75.4171 86.962 75.0141 86.6404 74.5555 86.4204C74.0969 86.2003 73.5947 86.0877 73.0866 86.0909C72.7527 86.0739 72.4193 86.1336 72.1118 86.2657C71.8043 86.3978 71.5309 86.5987 71.3123 86.8531Z" fill="#1D1D1B"/>
<path d="M82.903 99.0145C82.903 98.8765 82.9415 98.8047 83.0074 98.8047C83.8643 98.8047 84.4301 98.65 84.7048 98.3352C84.9794 98.0204 85.1223 97.3797 85.1223 96.4077V78.4859C85.1522 77.8735 85.076 77.2605 84.8971 76.6744C84.8391 76.5064 84.7286 76.3617 84.582 76.2622C84.4354 76.1626 84.2607 76.1135 84.0841 76.1221C83.5373 76.1791 83.0071 76.3443 82.524 76.6081H82.491C82.3977 76.6081 82.3208 76.5418 82.2658 76.4148C82.2109 76.2878 82.2274 76.216 82.3153 76.1884L86.8856 74.0344L87.0229 73.9958C87.1121 74.0058 87.1962 74.0423 87.2646 74.1007C87.3024 74.1223 87.3345 74.1525 87.3584 74.189C87.3823 74.2255 87.3972 74.2672 87.4019 74.3106V96.4022C87.4019 97.3742 87.5393 98.0204 87.8029 98.3297C88.0666 98.639 88.6379 98.7991 89.5168 98.7991C89.5827 98.7991 89.6212 98.8709 89.6212 99.009C89.6212 99.1471 89.5827 99.2189 89.5168 99.2189C88.9602 99.2189 88.5097 99.2078 88.1655 99.1857L86.2648 99.1471L84.3258 99.1857C84.0035 99.2078 83.564 99.2189 83.0074 99.2189C82.947 99.2244 82.903 99.1526 82.903 99.0145Z" fill="#1D1D1B"/>
<path d="M92.0766 99.0145C92.0766 98.8765 92.1096 98.8047 92.181 98.8047C93.0324 98.8047 93.5982 98.65 93.8729 98.3352C94.1475 98.0204 94.2903 97.3797 94.2903 96.4077V89.9349C94.3211 89.3321 94.2391 88.7289 94.0487 88.1565C93.9813 87.9835 93.8608 87.8367 93.7047 87.7374C93.5486 87.6381 93.365 87.5914 93.1807 87.6042C92.6434 87.6477 92.1229 87.8139 91.6591 88.0902H91.6262C91.5328 88.0902 91.4669 88.0295 91.4174 87.9135C91.368 87.7975 91.4174 87.7202 91.4888 87.6705L96.0921 85.5165L96.2294 85.4779C96.3139 85.4873 96.3929 85.5241 96.4547 85.5828C96.4891 85.6065 96.5178 85.6377 96.5387 85.674C96.5596 85.7103 96.5722 85.7509 96.5755 85.7927C96.5755 85.9584 96.5755 86.4168 96.5425 87.1845C96.5096 87.9521 96.5041 88.8413 96.5041 89.8962V96.4077C96.4863 96.9172 96.54 97.4266 96.6634 97.921C96.7043 98.0758 96.78 98.2191 96.8848 98.3398C96.9896 98.4605 97.1206 98.5553 97.2676 98.6169C97.7023 98.7644 98.1608 98.8281 98.619 98.8047C98.6849 98.8047 98.7178 98.8765 98.7178 99.0145C98.7178 99.1526 98.6849 99.2244 98.619 99.2244C98.0403 99.2244 97.5899 99.2134 97.2676 99.1913L95.4 99.1526L93.4609 99.1913C93.1368 99.1913 92.7083 99.2244 92.181 99.2244C92.1096 99.2244 92.0766 99.1526 92.0766 99.0145ZM93.9608 81.0982C93.8112 80.9409 93.6955 80.7542 93.6208 80.5499C93.5462 80.3456 93.5142 80.1281 93.5268 79.9108C93.519 79.7065 93.5536 79.5028 93.6283 79.3126C93.703 79.1225 93.8162 78.95 93.9608 78.8062C94.1229 78.6602 94.3122 78.5479 94.5177 78.4759C94.7233 78.4038 94.941 78.3734 95.1583 78.3865C95.3663 78.3741 95.5747 78.405 95.7703 78.4772C95.966 78.5494 96.1447 78.6614 96.2954 78.8062C96.4367 78.9516 96.5467 79.1248 96.6185 79.3148C96.6903 79.5048 96.7224 79.7077 96.7128 79.9108C96.727 80.1268 96.6973 80.3435 96.6255 80.5477C96.5537 80.7518 96.4414 80.9391 96.2954 81.0982C96.1435 81.2409 95.9644 81.3512 95.769 81.4224C95.5736 81.4936 95.3658 81.5242 95.1583 81.5124C94.9414 81.5262 94.7239 81.4967 94.5184 81.4256C94.3128 81.3545 94.1233 81.2432 93.9608 81.0982Z" fill="#1D1D1B"/>
<path d="M116.713 97.1699C116.807 97.1699 116.873 97.2306 116.906 97.3466C116.939 97.4626 116.906 97.5399 116.856 97.5896L112.665 99.5723L112.528 99.6055C112.297 99.6055 112.077 99.3293 111.868 98.7715C111.643 98.0748 111.539 97.3443 111.561 96.6121C109.832 98.5635 108.032 99.5392 106.161 99.5392C105.651 99.5638 105.142 99.4779 104.668 99.2874C104.194 99.0968 103.767 98.8059 103.414 98.4346C102.694 97.5453 102.335 96.4147 102.409 95.27V89.9459C102.439 89.299 102.363 88.6515 102.184 88.0295C102.139 87.8583 102.038 87.7073 101.898 87.6002C101.757 87.4932 101.586 87.4363 101.409 87.4385C101.012 87.4691 100.624 87.576 100.267 87.7533H100.195C100.124 87.7533 100.075 87.6926 100.042 87.5766C100.009 87.4606 100.042 87.3943 100.091 87.3722L104.074 85.5276L104.211 85.4889C104.3 85.4999 104.384 85.5363 104.453 85.5939C104.49 85.6154 104.523 85.6457 104.546 85.6822C104.57 85.7187 104.585 85.7603 104.59 85.8037V93.9832C104.59 96.6489 105.559 97.9817 107.496 97.9817C108.231 97.9722 108.954 97.7947 109.611 97.4626C110.348 97.0943 111.015 96.5989 111.583 95.999V89.9238C111.615 89.2757 111.533 88.627 111.341 88.0074C111.289 87.8359 111.184 87.6858 111.04 87.5793C110.897 87.4729 110.723 87.4158 110.545 87.4164C110.147 87.447 109.759 87.5539 109.402 87.7312H109.314C109.248 87.7312 109.199 87.6705 109.177 87.5545C109.155 87.4385 109.177 87.3722 109.248 87.3501L113.225 85.5055L113.363 85.4668C113.447 85.4754 113.527 85.5124 113.588 85.5718C113.622 85.5955 113.651 85.6266 113.672 85.663C113.693 85.6993 113.705 85.7398 113.709 85.7816V95.4191C113.671 96.002 113.767 96.5859 113.989 97.1257C114.071 97.2912 114.199 97.4288 114.358 97.5212C114.518 97.6135 114.701 97.6566 114.884 97.6448C115.493 97.5836 116.089 97.431 116.653 97.192L116.713 97.1699Z" fill="#1D1D1B"/>
<path d="M121.399 98.6831C120.374 98.0271 119.547 97.1006 119.009 96.0045C118.441 94.8653 118.151 93.6062 118.164 92.3318C118.116 90.9591 118.501 89.6063 119.262 88.4658C119.973 87.4352 120.949 86.6181 122.086 86.102C123.185 85.5877 124.383 85.3201 125.596 85.3177C126.863 85.2906 128.109 85.6424 129.177 86.3284C130.191 86.9858 131.011 87.9052 131.55 88.9905C132.106 90.0787 132.392 91.2854 132.385 92.5085C132.415 93.8365 132.066 95.1453 131.38 96.2807C130.726 97.3489 129.793 98.2161 128.683 98.7881C127.539 99.3826 126.268 99.6878 124.981 99.6773C123.716 99.7044 122.471 99.3588 121.399 98.6831ZM128.771 97.6559C129.423 96.7575 129.75 95.3786 129.754 93.5192C129.778 92.1866 129.543 90.8622 129.062 89.6201C128.674 88.5838 128.018 87.6706 127.161 86.9746C126.392 86.3629 125.439 86.0318 124.459 86.0357C123.927 86.0084 123.397 86.1154 122.918 86.347C122.438 86.5785 122.023 86.9272 121.712 87.3612C121.064 88.2375 120.74 89.5262 120.74 91.2272C120.724 92.5739 120.953 93.9122 121.415 95.1761C121.79 96.2554 122.426 97.2236 123.267 97.9928C124.008 98.6601 124.969 99.0263 125.964 99.02C126.503 99.0425 127.04 98.9296 127.525 98.6915C128.011 98.4533 128.429 98.0974 128.743 97.6559H128.771Z" fill="#1D1D1B"/>
<path d="M134.813 99.0146C134.813 98.8765 134.846 98.8047 134.918 98.8047C135.769 98.8047 136.335 98.6501 136.615 98.3353C136.895 98.0205 137.027 97.3798 137.027 96.4078V78.486C137.06 77.8735 136.983 77.26 136.802 76.6745C136.745 76.5054 136.635 76.3598 136.488 76.2599C136.341 76.1601 136.166 76.1117 135.989 76.1222C135.444 76.1795 134.915 76.3447 134.434 76.6082H134.401C134.308 76.6082 134.231 76.5419 134.176 76.4149C134.121 76.2879 134.132 76.2161 134.225 76.1884L138.796 74.0345L138.933 73.9959C139.022 74.0068 139.106 74.0432 139.175 74.1008C139.213 74.1224 139.245 74.1526 139.269 74.1891C139.292 74.2256 139.307 74.2673 139.312 74.3107V96.4023C139.312 97.3743 139.444 98.0205 139.713 98.3298C139.982 98.6391 140.548 98.7992 141.422 98.7992C141.493 98.7992 141.526 98.871 141.526 99.0091C141.526 99.1472 141.493 99.219 141.422 99.219C140.872 99.219 140.422 99.219 140.076 99.1858L138.17 99.1472L136.23 99.1858C135.912 99.1858 135.472 99.219 134.918 99.219C134.846 99.2245 134.813 99.1527 134.813 99.0146Z" fill="#1D1D1B"/>
<path d="M147.014 98.6832C145.988 98.0272 145.161 97.1007 144.624 96.0046C144.056 94.8654 143.766 93.6063 143.778 92.3319C143.731 90.9591 144.115 89.6064 144.877 88.4659C145.587 87.4353 146.563 86.6182 147.7 86.1021C148.8 85.5878 149.998 85.3202 151.21 85.3178C152.477 85.2907 153.724 85.6425 154.792 86.3285C155.806 86.9859 156.626 87.9053 157.165 88.9905C157.715 90.0726 157.999 91.2714 157.994 92.4865C158.024 93.8145 157.675 95.1233 156.989 96.2587C156.337 97.3281 155.403 98.1958 154.292 98.7661C153.148 99.3606 151.877 99.6658 150.59 99.6553C149.329 99.6879 148.086 99.3501 147.014 98.6832ZM154.385 97.656C155.045 96.7557 155.369 95.375 155.369 93.5193C155.392 92.1867 155.157 90.8623 154.676 89.6201C154.288 88.5839 153.632 87.6707 152.776 86.9747C152.007 86.3629 151.054 86.0319 150.073 86.0358C149.542 86.0085 149.012 86.1155 148.532 86.3471C148.052 86.5786 147.638 86.9273 147.327 87.3613C146.678 88.2376 146.354 89.5263 146.354 91.2273C146.338 92.574 146.567 93.9123 147.03 95.1762C147.404 96.2555 148.04 97.2237 148.881 97.9929C149.624 98.6615 150.587 99.0278 151.584 99.0201C152.127 99.0464 152.668 98.9353 153.157 98.6969C153.647 98.4586 154.069 98.1007 154.385 97.656Z" fill="#1D1D1B"/>
</svg>
